<?xml version="1.0" encoding="utf-8"?>
<!-- Generator: Adobe Illustrator 25.0.0, SVG Export Plug-In . SVG Version: 6.00 Build 0)  -->
<svg version="1.1" id="Calque_1" xmlns="http://www.w3.org/2000/svg" xmlns:xlink="http://www.w3.org/1999/xlink" x="0px" y="0px"
	 viewBox="0 0 600 600" style="enable-background:new 0 0 600 600;" xml:space="preserve">
<style type="text/css">
	.st0{fill:url(#SVGID_1_);}
	.st1{fill:url(#SVGID_2_);}
	.st2{fill:url(#SVGID_3_);}
</style>
<g>
	<linearGradient id="SVGID_1_" gradientUnits="userSpaceOnUse" x1="133.8947" y1="316.7182" x2="393.5217" y2="316.7182">
		<stop  offset="0" style="stop-color:#35A8E0"/>
		<stop  offset="0.2462" style="stop-color:#33A3DC"/>
		<stop  offset="0.5492" style="stop-color:#2C94D1"/>
		<stop  offset="0.8807" style="stop-color:#227BBF"/>
		<stop  offset="1" style="stop-color:#1D70B7"/>
	</linearGradient>
	<path class="st0" d="M133.89,470.58c0,0,82.28-117.89,143.16-206.96c32.51-47.56,58.91-86.91,63.44-95.71
		c13-25.28,44.06-65.73,12.28-122.8c0,0,60.68,106.91,33.95,198.65C359.99,335.5,179.4,588.33,179.4,588.33L133.89,470.58z"/>
	<linearGradient id="SVGID_2_" gradientUnits="userSpaceOnUse" x1="222.2658" y1="316.7182" x2="481.892" y2="316.7182">
		<stop  offset="0" style="stop-color:#35A8E0"/>
		<stop  offset="0.2462" style="stop-color:#33A3DC"/>
		<stop  offset="0.5492" style="stop-color:#2C94D1"/>
		<stop  offset="0.8807" style="stop-color:#227BBF"/>
		<stop  offset="1" style="stop-color:#1D70B7"/>
	</linearGradient>
	<path class="st1" d="M466,470.58c0,0-193.59-277.39-206.59-302.67c-13-25.28-44.06-65.73-12.28-122.8
		c0,0-60.68,106.91-33.95,198.65c26.73,91.74,207.32,344.57,207.32,344.57L466,470.58z"/>
	<linearGradient id="SVGID_3_" gradientUnits="userSpaceOnUse" x1="299.9474" y1="-0.3973" x2="299.9474" y2="66.0752">
		<stop  offset="0" style="stop-color:#35A8E0"/>
		<stop  offset="0.2462" style="stop-color:#33A3DC"/>
		<stop  offset="0.5492" style="stop-color:#2C94D1"/>
		<stop  offset="0.8807" style="stop-color:#227BBF"/>
		<stop  offset="1" style="stop-color:#1D70B7"/>
	</linearGradient>
	<path class="st2" d="M348.63,41.89c-24.56-27.45-48.68-24.23-48.68-24.23s-24.12-3.22-48.68,24.23
		c-30.07,36.3-13.78,80.09-13.78,80.09c17.34-27.45,47.56-32.08,62.47-32.08c14.91,0,45.13,4.63,62.47,32.08
		C362.41,121.98,378.7,78.19,348.63,41.89z"/>
</g>
</svg>
