<?xml version="1.0" standalone="no"?>
<!DOCTYPE svg PUBLIC "-//W3C//DTD SVG 20010904//EN"
 "http://www.w3.org/TR/2001/REC-SVG-20010904/DTD/svg10.dtd">
<svg version="1.0" xmlns="http://www.w3.org/2000/svg"
 width="1198.000000pt" height="573.000000pt" viewBox="0 0 1198.000000 573.000000"
 preserveAspectRatio="xMidYMid meet">

<g transform="translate(0.000000,573.000000) scale(0.100000,-0.100000)"
fill="#060668" stroke="none">
<path d="M5827 5439 c-20 -5 -55 -18 -77 -29 -48 -25 -50 -25 -50 0 0 18 -7
20 -75 20 -60 0 -75 -3 -75 -15 0 -9 9 -15 25 -15 18 0 28 -7 35 -26 6 -14 10
-117 10 -229 l0 -203 -35 -6 c-73 -14 -32 -26 86 -26 92 0 120 3 117 13 -3 6
-20 14 -39 17 l-34 5 0 210 0 210 54 8 c73 12 117 2 139 -31 14 -22 18 -56 20
-209 l4 -182 -29 -6 c-46 -11 -53 -14 -53 -25 0 -6 46 -10 125 -10 99 0 125 3
125 14 0 8 -16 16 -39 20 l-39 6 -4 202 c-2 112 -1 207 3 211 4 5 42 11 85 14
76 5 80 4 104 -22 25 -26 25 -30 28 -215 l4 -188 -42 -7 c-22 -4 -39 -12 -37
-18 3 -10 226 -11 237 -1 7 8 -23 24 -46 24 -21 0 -22 4 -26 203 -3 168 -7
208 -22 235 -36 68 -124 78 -248 28 l-62 -25 -22 20 c-19 18 -76 40 -99 38 -5
-1 -27 -5 -48 -10z"/>
<path d="M4253 5353 c-85 -36 -133 -61 -133 -70 0 -11 7 -13 25 -9 78 19 67
29 123 -106 28 -68 52 -129 54 -136 2 -9 -51 -36 -151 -78 -84 -35 -157 -64
-161 -64 -6 0 -75 152 -111 247 -7 19 -3 25 31 44 35 20 54 49 33 49 -26 0
-268 -110 -268 -121 0 -8 5 -13 12 -12 6 2 29 5 50 9 l38 6 119 -287 c65 -157
120 -294 122 -303 3 -11 -9 -25 -35 -42 -59 -38 -40 -54 29 -25 30 12 90 37
133 55 48 20 77 38 77 47 0 12 -7 14 -27 8 -16 -3 -37 -9 -49 -11 -18 -5 -27
10 -77 130 -31 74 -58 139 -59 146 -3 11 299 142 316 137 7 -2 50 -98 107
-239 l18 -47 -39 -22 c-36 -20 -54 -49 -31 -49 19 0 262 107 261 116 0 5 -22
8 -49 6 l-47 -3 -122 294 c-67 161 -122 298 -122 304 0 6 16 20 35 32 19 11
35 27 35 36 0 8 -1 15 -2 15 -2 -1 -63 -26 -135 -57z"/>
<path d="M6710 5381 c0 -5 14 -14 30 -21 17 -7 30 -18 30 -24 -1 -6 -22 -103
-48 -216 l-48 -205 -38 -3 c-63 -5 -36 -24 70 -49 54 -12 105 -23 112 -23 25
0 11 20 -24 35 -26 11 -34 19 -30 32 7 21 86 370 86 378 0 9 93 5 132 -5 44
-13 68 -43 68 -85 -1 -16 -18 -102 -38 -190 l-37 -160 -43 -3 c-23 -2 -42 -7
-42 -12 0 -7 202 -60 230 -60 23 0 8 22 -24 35 l-34 15 13 57 c50 217 65 283
67 312 l2 33 74 -4 c92 -6 126 -28 130 -82 2 -20 -14 -111 -34 -202 l-38 -164
-43 0 c-70 0 -50 -17 48 -39 50 -12 101 -24 115 -27 18 -5 24 -2 24 10 0 8
-11 18 -25 22 -15 4 -25 13 -25 24 0 9 18 96 40 193 22 96 40 185 40 198 0 38
-37 89 -78 106 -28 12 -57 14 -117 10 -44 -3 -87 -8 -96 -12 -10 -4 -19 3 -27
20 -20 43 -92 69 -171 62 -36 -3 -74 -8 -83 -12 -12 -5 -17 0 -20 17 -2 19
-12 25 -53 35 -62 14 -95 16 -95 4z"/>
<path d="M4956 5330 c-111 -44 -158 -135 -137 -268 21 -137 81 -227 168 -251
51 -14 68 -14 138 4 79 21 129 57 156 112 18 38 21 56 17 131 -8 142 -61 243
-145 278 -46 20 -139 16 -197 -6z m162 -53 c71 -65 114 -264 78 -352 -28 -65
-119 -95 -185 -60 -53 27 -101 166 -101 291 0 63 3 76 26 103 45 54 134 62
182 18z"/>
<path d="M7873 5009 c-56 -27 -88 -67 -130 -157 -79 -169 -48 -281 95 -345 75
-34 166 -46 175 -24 5 13 -10 21 -66 39 -49 15 -85 34 -112 59 -38 36 -40 40
-39 96 0 32 8 75 17 95 l16 37 130 -59 c182 -82 163 -81 190 -5 45 125 16 205
-93 256 -73 35 -125 37 -183 8z m162 -45 c47 -22 61 -61 46 -127 -19 -87 -16
-86 -130 -36 -56 24 -101 46 -101 49 1 20 51 88 79 107 40 27 61 29 106 7z"/>
<path d="M6335 4693 c-214 -48 -384 -199 -457 -407 -24 -71 -28 -96 -28 -198
0 -97 4 -130 25 -195 42 -133 136 -255 256 -333 62 -40 198 -90 244 -90 55 0
70 -28 40 -80 -20 -35 -19 -40 10 -40 l25 0 0 -1165 c0 -641 -2 -1165 -5
-1165 -2 0 -13 17 -24 38 -24 46 -69 88 -145 133 -31 19 -56 37 -56 41 0 4 15
14 34 23 70 34 146 136 146 197 0 17 -16 44 -45 76 -25 27 -45 53 -45 57 0 4
8 14 18 21 14 10 15 15 5 25 -7 7 -13 21 -13 31 0 19 5 22 53 32 38 9 34 27
-17 79 -66 68 -117 91 -201 91 -59 0 -83 -5 -155 -38 -47 -21 -99 -48 -116
-62 -35 -26 -68 -89 -78 -146 -6 -35 -5 -38 17 -38 21 0 25 -6 30 -41 6 -47
29 -76 75 -96 37 -15 39 -24 15 -64 -15 -25 -22 -29 -46 -23 -64 14 -293 -45
-353 -91 -19 -15 -47 -45 -61 -68 -14 -23 -39 -61 -55 -84 -30 -45 -25 -59 18
-49 13 4 24 2 24 -3 0 -18 40 -23 55 -7 12 12 13 20 3 41 -9 21 -9 29 3 40 12
12 21 12 52 3 50 -15 71 2 33 27 -15 10 -31 26 -37 37 -8 15 -5 20 16 28 68
26 72 25 93 -23 18 -42 22 -44 73 -53 54 -9 54 -9 52 -44 -1 -19 -4 -77 -6
-127 -3 -88 -5 -95 -37 -134 -27 -34 -31 -45 -22 -58 23 -31 23 -39 -3 -77
-36 -53 -30 -84 18 -107 30 -14 37 -22 31 -35 -12 -28 -34 -115 -34 -134 0
-16 -3 -16 -42 1 -75 32 -99 35 -105 11 -4 -17 -13 -20 -54 -20 -27 0 -49 -4
-49 -10 0 -5 5 -10 10 -10 6 0 10 -3 10 -8 0 -4 -29 -16 -64 -26 -36 -10 -74
-27 -85 -37 -24 -22 -29 -54 -7 -46 42 16 218 38 242 30 l26 -9 -27 -32 c-15
-18 -25 -35 -23 -38 3 -2 24 3 48 11 64 23 74 20 67 -15 -8 -37 3 -38 61 -8
l44 23 15 -23 c24 -35 85 -31 113 8 28 39 53 38 87 -5 32 -40 43 -44 43 -15 0
27 12 25 40 -5 27 -28 40 -32 40 -10 0 20 13 19 52 -5 35 -21 63 -27 53 -10
-9 15 9 12 65 -10 28 -11 60 -20 70 -20 24 0 26 22 5 40 -26 22 -16 30 35 29
59 -2 69 4 52 31 -11 18 -9 20 19 20 18 0 49 5 70 11 32 10 57 8 149 -10 60
-12 115 -19 120 -16 20 12 9 24 -41 40 -46 16 -49 18 -32 31 15 12 16 15 3 23
-8 5 -36 13 -62 16 -38 6 -46 10 -38 20 14 17 -8 25 -72 25 l-51 0 27 32 c54
68 80 120 84 174 4 43 1 55 -12 60 -29 11 -62 -5 -115 -56 -28 -27 -56 -50
-61 -50 -4 0 -18 12 -29 27 -12 16 -41 53 -64 83 -24 30 -56 77 -72 104 -24
41 -26 51 -16 68 7 11 9 23 4 27 -4 4 -25 20 -46 35 -28 20 -36 31 -28 39 18
18 13 55 -9 67 -11 6 -31 27 -43 47 l-24 37 34 23 c42 29 45 29 104 -3 55 -31
55 -44 -2 -44 -28 0 -39 -4 -39 -15 0 -18 31 -35 65 -35 20 0 26 -4 21 -15 -8
-22 34 -60 69 -62 17 -1 42 -4 58 -8 l27 -7 0 1195 0 1195 30 12 c17 7 30 14
30 16 0 2 -10 22 -22 45 -24 46 -16 59 35 59 47 0 174 48 242 90 129 82 232
225 270 375 19 76 19 224 0 300 -51 201 -205 369 -400 437 -71 24 -93 28 -195
27 -63 -1 -124 -3 -135 -6z m-261 -3909 c5 -12 14 -15 36 -10 24 4 41 -3 93
-39 35 -24 68 -55 75 -69 6 -13 36 -43 66 -66 31 -24 56 -48 56 -55 0 -44 -14
-105 -24 -102 -6 2 -20 1 -31 -3 -11 -4 -26 -3 -33 3 -9 7 -18 5 -30 -7 -23
-20 -32 -20 -32 -1 0 23 -17 18 -23 -7 -6 -22 -7 -22 -38 7 l-32 30 6 -32 c4
-18 5 -33 2 -33 -2 0 -21 11 -41 25 -37 25 -84 34 -84 15 0 -5 -13 -10 -28
-10 -15 0 -33 -5 -40 -12 -9 -9 -12 -8 -12 7 0 17 -1 17 -20 0 -29 -27 -32
-15 -10 43 11 29 20 77 20 106 0 47 -4 57 -29 78 l-28 24 19 27 c11 15 26 27
33 27 7 0 32 16 55 35 46 39 65 43 74 19z"/>
<path d="M2898 4495 c-3 -3 1 -35 8 -71 13 -62 13 -67 -7 -95 -23 -33 -17 -59
9 -36 10 8 22 17 29 21 7 4 54 -50 123 -141 133 -175 152 -193 203 -193 61 0
159 102 128 133 -8 8 -20 2 -44 -21 -35 -34 -63 -40 -90 -19 -9 6 -66 77 -126
157 l-111 145 24 22 c14 11 35 28 48 37 21 15 21 17 6 32 -15 16 -19 15 -56
-15 -22 -17 -44 -31 -50 -31 -5 0 -22 18 -37 40 -26 37 -44 48 -57 35z"/>
<path d="M8940 4420 c-55 -10 -93 -34 -150 -97 -144 -157 -143 -298 3 -397 63
-42 132 -65 149 -48 8 8 3 16 -21 29 -139 77 -179 151 -131 247 45 90 35 90
167 -10 65 -50 123 -94 130 -98 16 -9 78 85 93 142 15 57 0 109 -45 155 -60
61 -129 89 -195 77z m139 -86 c41 -35 41 -80 0 -152 l-30 -53 -37 27 c-93 69
-142 109 -142 114 0 9 62 66 85 78 36 20 91 14 124 -14z"/>
<path d="M2417 4222 c-35 -38 -7 -102 44 -102 23 0 49 33 49 63 0 51 -59 76
-93 39z"/>
<path d="M2550 4035 c-56 -57 -61 -82 -9 -51 l31 18 35 -33 c19 -19 89 -91
155 -162 l120 -127 -26 -34 c-62 -81 -15 -58 93 46 89 87 104 120 34 77 l-36
-22 -166 172 c-91 94 -168 172 -171 171 -3 0 -30 -25 -60 -55z"/>
<path d="M9466 4032 c-3 -5 1 -18 9 -28 8 -10 15 -22 15 -25 0 -4 -72 -75
-161 -158 l-160 -151 -29 17 c-16 9 -32 14 -36 10 -7 -7 133 -167 147 -167 14
0 11 23 -7 48 -17 25 -10 33 243 266 l52 48 60 -59 c94 -91 92 -96 -110 -284
l-110 -103 -30 18 c-66 39 -39 -11 55 -103 57 -57 83 -62 53 -12 l-17 29 141
133 c77 73 147 145 155 160 40 78 -3 150 -122 206 -51 24 -59 32 -50 45 8 13
1 27 -34 65 -49 53 -56 58 -64 45z"/>
<path d="M2259 3737 l-36 -41 -43 37 c-31 27 -47 34 -56 26 -9 -8 -6 -23 14
-70 23 -54 24 -63 13 -95 -16 -45 -8 -54 24 -24 21 20 27 21 42 9 10 -8 80
-67 156 -131 150 -126 186 -144 231 -114 39 25 78 83 79 117 3 45 -14 45 -45
-1 -47 -67 -53 -65 -256 109 l-121 104 19 27 c10 15 26 33 35 40 19 16 19 36
-1 44 -20 8 -13 12 -55 -37z"/>
<path d="M1748 3451 c-16 -22 -28 -41 -28 -44 0 -3 52 -33 116 -67 91 -48 119
-59 125 -48 5 7 9 16 9 19 0 6 -185 179 -192 179 -1 0 -15 -18 -30 -39z"/>
<path d="M10483 3113 c-8 -3 -7 -16 4 -49 8 -25 14 -46 12 -48 -8 -6 -279
-146 -428 -221 l-154 -78 -32 39 c-18 22 -37 35 -41 31 -10 -10 166 -365 213
-430 47 -64 105 -97 170 -97 124 0 204 84 190 199 -3 25 -9 55 -13 65 -6 16
-1 14 30 -9 54 -41 145 -47 196 -13 46 31 80 83 80 123 0 52 -29 133 -90 255
-95 186 -124 237 -137 233z m147 -415 c0 -39 -5 -54 -25 -74 -50 -50 -122 -66
-175 -39 -32 17 -51 42 -103 138 l-37 67 128 64 127 64 43 -86 c32 -65 42 -97
42 -134z m-332 -25 c70 -151 75 -210 19 -260 -75 -69 -171 -70 -233 -1 -22 23
-118 207 -112 213 10 9 265 134 274 134 6 1 29 -38 52 -86z"/>
<path d="M1523 3025 c-53 -32 -94 -89 -179 -252 -70 -133 -78 -179 -20 -110
l32 38 288 -153 c315 -167 292 -148 270 -225 -4 -17 -2 -23 8 -23 20 0 159
262 146 275 -6 7 -16 1 -29 -17 -11 -14 -28 -37 -38 -49 l-18 -22 -106 57
c-59 31 -107 59 -107 61 0 1 16 38 37 80 40 86 51 154 33 210 -41 124 -210
194 -317 130z m99 -79 c95 -28 158 -92 158 -160 0 -54 -48 -159 -69 -151 -9 3
-80 40 -158 81 l-143 75 20 38 c28 55 69 102 105 117 38 17 33 17 87 0z"/>
<path d="M10943 2184 l2 -47 -325 -108 c-179 -60 -329 -109 -335 -109 -6 0
-19 16 -29 35 -19 35 -36 46 -36 22 0 -27 76 -238 85 -237 6 0 9 20 7 44 l-3
44 338 112 c186 62 345 117 355 121 15 8 14 16 -10 89 -30 91 -51 105 -49 34z"/>
<path d="M1230 1718 c-73 -37 -115 -143 -96 -242 19 -100 165 -178 331 -178
107 0 171 52 201 164 16 62 18 126 4 162 -16 43 -27 29 -39 -50 -12 -84 -27
-117 -66 -154 -23 -21 -36 -25 -93 -25 -108 0 -104 -9 -66 157 19 79 34 148
34 154 0 17 -22 23 -98 30 -57 5 -73 2 -112 -18z m148 -82 c8 -9 -44 -209 -56
-213 -7 -3 -36 7 -66 21 -62 30 -92 77 -81 125 6 28 36 63 65 75 15 6 130 -1
138 -8z"/>
<path d="M10587 1555 c-145 -37 -201 -97 -199 -215 1 -95 49 -210 88 -210 8 0
14 1 14 3 0 1 -9 31 -20 65 -30 96 -27 153 10 196 28 32 100 66 140 66 13 0
22 -30 44 -147 16 -82 32 -152 37 -157 14 -15 142 31 176 64 60 58 68 151 23
244 -34 71 -82 99 -178 102 -45 2 -101 -3 -135 -11z m259 -106 c58 -59 46
-137 -28 -168 -24 -10 -55 -21 -70 -25 -31 -7 -26 -18 -54 123 -19 100 -16
104 69 98 45 -3 63 -9 83 -28z"/>
<path d="M1352 994 c2 -14 22 -24 77 -39 l73 -20 -4 -157 c-2 -86 -6 -159 -8
-162 -3 -2 -149 5 -324 15 -228 13 -322 23 -328 31 -4 7 -8 34 -8 61 0 33 -4
47 -14 47 -11 0 -15 -26 -20 -117 -4 -65 -8 -137 -11 -160 -4 -33 -1 -43 10
-43 8 0 17 12 21 28 14 64 12 62 67 62 29 0 160 -7 292 -15 132 -8 257 -15
278 -15 34 0 37 -2 37 -27 0 -42 11 -73 24 -73 9 0 16 63 25 228 6 125 15 255
18 288 l6 62 -39 6 c-22 3 -70 8 -107 12 -64 6 -69 5 -65 -12z"/>
<path d="M10956 876 l-7 -34 -147 -6 c-208 -9 -255 -15 -290 -36 -60 -37 -65
-132 -12 -242 24 -50 24 -45 0 -51 -22 -6 -25 -29 -14 -111 8 -54 21 -60 29
-12 l7 34 71 6 c40 3 147 8 240 12 l167 6 0 84 c0 66 -3 84 -14 84 -10 0 -16
-13 -18 -37 l-3 -38 -90 -6 c-49 -4 -143 -9 -207 -12 l-118 -5 -10 36 c-17 62
-13 139 9 161 24 24 58 29 269 37 l173 6 -3 76 c-3 81 -21 108 -32 48z"/>
</g>
</svg>
